<svg xmlns="http://www.w3.org/2000/svg" width="800" height="600" viewBox="0 0 800 600" role="img" aria-label="Illustrasjon: taktekking med takstein">
  <defs>
    <linearGradient id="t-sky" x1="0" y1="0" x2="0" y2="1"><stop offset="0" stop-color="#bcd6e2"/><stop offset="1" stop-color="#9fbccb"/></linearGradient>
    <linearGradient id="t-roof" x1="0" y1="0" x2="0.3" y2="1"><stop offset="0" stop-color="#c96f34"/><stop offset="1" stop-color="#8a441b"/></linearGradient>
    <radialGradient id="t-sun" cx="0.5" cy="0.5" r="0.5"><stop offset="0" stop-color="#fff2da"/><stop offset="1" stop-color="#fff2da" stop-opacity="0"/></radialGradient>
    <filter id="t-grain" x="0" y="0" width="100%" height="100%"><feTurbulence type="fractalNoise" baseFrequency="0.7" numOctaves="2" seed="9" result="n"/><feColorMatrix in="n" type="matrix" values="0 0 0 0 0 0 0 0 0 0 0 0 0 0 0 0 0 0 0.16 0"/><feComposite operator="in" in2="SourceGraphic"/></filter>
    <radialGradient id="t-vig" cx="0.5" cy="0.45" r="0.78"><stop offset="0.5" stop-color="#000" stop-opacity="0"/><stop offset="1" stop-color="#0a1116" stop-opacity="0.3"/></radialGradient>
    <filter id="t-fg"><feTurbulence type="fractalNoise" baseFrequency="0.9" numOctaves="2" stitchTiles="stitch"/><feColorMatrix type="matrix" values="0 0 0 0 0 0 0 0 0 0 0 0 0 0 0 0 0 0 0.04 0"/></filter>
  </defs>
  <rect width="800" height="600" fill="url(#t-sky)"/>
  <circle cx="650" cy="110" r="150" fill="url(#t-sun)"/><circle cx="650" cy="110" r="42" fill="#fff5e4"/>
  <!-- roof plane -->
  <path d="M80 520 L400 150 L760 360 L440 560 Z" fill="url(#t-roof)"/>
  <path d="M80 520 L400 150 L760 360 L440 560 Z" filter="url(#t-grain)"/>
  <path d="M400 150 L760 360 L440 560 Z" fill="#000" opacity="0.12"/>
  <!-- tile courses with cast shadow -->
  <g opacity="0.5">
    <path d="M180 455 L470 285" stroke="#7a3d16" stroke-width="4" fill="none"/>
    <path d="M270 405 L560 235" stroke="#7a3d16" stroke-width="4" fill="none"/>
    <path d="M360 355 L650 285" stroke="#7a3d16" stroke-width="4" fill="none"/>
    <path d="M255 500 L575 300" stroke="#7a3d16" stroke-width="4" fill="none"/>
  </g>
  <g opacity="0.4" stroke="#f0d7b3" stroke-width="1.4">
    <path d="M182 452 L472 282" fill="none"/><path d="M272 402 L562 232" fill="none"/>
  </g>
  <!-- vertical tile joints -->
  <g stroke="#7a3d16" stroke-width="2" opacity="0.3">
    <path d="M300 210 L340 520" fill="none"/><path d="M420 240 L460 545" fill="none"/><path d="M540 300 L575 560" fill="none"/>
  </g>
  <!-- ridge -->
  <path d="M400 150 L760 360" stroke="#f0d7b3" stroke-width="8" fill="none" stroke-linecap="round"/>
  <path d="M400 150 L760 360" stroke="#c96f34" stroke-width="2.5" fill="none" stroke-linecap="round"/>
  <rect width="800" height="600" fill="url(#t-vig)"/>
  <rect width="800" height="600" filter="url(#t-fg)" opacity="0.5"/>
</svg>
