<svg xmlns="http://www.w3.org/2000/svg" width="800" height="600" viewBox="0 0 800 600" role="img" aria-label="Illustrasjon: takrenner og nedløp">
  <defs>
    <linearGradient id="g-sky" x1="0" y1="0" x2="0" y2="1"><stop offset="0" stop-color="#c2d5e0"/><stop offset="1" stop-color="#9db9c6"/></linearGradient>
    <linearGradient id="g-roof" x1="0" y1="0" x2="0.3" y2="1"><stop offset="0" stop-color="#c96f34"/><stop offset="1" stop-color="#8a441b"/></linearGradient>
    <linearGradient id="g-metal" x1="0" y1="0" x2="0" y2="1"><stop offset="0" stop-color="#c2ccd2"/><stop offset="0.5" stop-color="#8a99a3"/><stop offset="1" stop-color="#6c7a83"/></linearGradient>
    <linearGradient id="g-wall" x1="0" y1="0" x2="0" y2="1"><stop offset="0" stop-color="#e6edef"/><stop offset="1" stop-color="#c6d0d4"/></linearGradient>
    <filter id="g-grain" x="0" y="0" width="100%" height="100%"><feTurbulence type="fractalNoise" baseFrequency="0.7" numOctaves="2" seed="8" result="n"/><feColorMatrix in="n" type="matrix" values="0 0 0 0 0 0 0 0 0 0 0 0 0 0 0 0 0 0 0.15 0"/><feComposite operator="in" in2="SourceGraphic"/></filter>
    <radialGradient id="g-vig" cx="0.5" cy="0.45" r="0.78"><stop offset="0.5" stop-color="#000" stop-opacity="0"/><stop offset="1" stop-color="#0a1116" stop-opacity="0.28"/></radialGradient>
    <filter id="g-fg"><feTurbulence type="fractalNoise" baseFrequency="0.9" numOctaves="2" stitchTiles="stitch"/><feColorMatrix type="matrix" values="0 0 0 0 0 0 0 0 0 0 0 0 0 0 0 0 0 0 0.04 0"/></filter>
  </defs>
  <rect width="800" height="600" fill="url(#g-sky)"/>
  <!-- roof edge -->
  <path d="M40 300 L560 120 L800 210 L800 300 Z" fill="url(#g-roof)"/>
  <path d="M40 300 L560 120 L800 210 L800 300 Z" filter="url(#g-grain)"/>
  <g stroke="#7a3d16" stroke-width="3" opacity="0.45"><path d="M120 271 L560 120" fill="none"/><path d="M240 227 L640 160" fill="none"/></g>
  <!-- fascia -->
  <rect x="40" y="300" width="760" height="26" fill="#e7edef"/>
  <rect x="40" y="300" width="760" height="6" fill="#fff" opacity="0.5"/>
  <!-- gutter -->
  <rect x="40" y="326" width="760" height="30" rx="14" fill="url(#g-metal)"/>
  <rect x="40" y="328" width="760" height="9" rx="4" fill="#ccd6dc"/>
  <rect x="40" y="349" width="760" height="7" rx="3" fill="#59666e" opacity="0.8"/>
  <!-- downpipe -->
  <rect x="620" y="356" width="34" height="230" fill="url(#g-metal)"/>
  <rect x="624" y="356" width="9" height="230" fill="#ccd6dc"/>
  <rect x="647" y="356" width="7" height="230" fill="#59666e" opacity="0.8"/>
  <rect x="612" y="560" width="50" height="16" rx="6" fill="#6b7981"/>
  <!-- bracket -->
  <rect x="300" y="356" width="10" height="14" fill="#6b7981"/>
  <!-- wall -->
  <rect y="356" width="560" height="244" fill="url(#g-wall)"/>
  <rect y="356" width="24" height="244" fill="#fff" opacity="0.15"/>
  <rect x="120" y="410" width="110" height="150" rx="4" fill="#2b3e4b"/>
  <rect x="120" y="410" width="30" height="150" rx="2" fill="#fff" opacity="0.12"/>
  <rect width="800" height="600" fill="url(#g-vig)"/>
  <rect width="800" height="600" filter="url(#g-fg)" opacity="0.5"/>
</svg>
